<svg width="593" height="84" viewBox="0 0 593 84" fill="none" xmlns="http://www.w3.org/2000/svg">
<path d="M59.5183 83.9996H0V0.0229492H59.5183V15.762H17.9092V33.5064H58.631V49.2454H17.9092V68.2606H59.5183V83.9996Z" fill="white"/>
<path d="M120.788 84.0001H98.3493L65.8115 0.0234375H86.2425L109.569 64.6119L132.767 0.0234375H153.198L120.788 84.0001Z" fill="white"/>
<path d="M221.787 84.0001H162.269V0.0234375H221.787V15.7625H180.178V33.5068H220.9V49.2459H180.178V68.261H221.787V84.0001Z" fill="white"/>
<path d="M312.314 84.0001H295.035L254.943 29.2282V84.0001H237.034V0.0234375H255.445L294.404 52.7785V0.0234375H312.314V84.0001Z" fill="white"/>
<path d="M367.664 84.0001H349.626V15.7625H325.039V0.0234375H392.123V15.7625H367.664V84.0001Z" fill="white"/>
<!-- <g opacity="0.7">
<g opacity="0.7"> -->
<path  d="M421.473 64.845H410.265V1.04932H438.331C444.775 1.04932 449.877 2.96132 453.602 6.78533C457.338 10.6093 459.206 15.366 459.206 21.0321C459.206 26.6399 457.338 31.3733 453.602 35.2322C449.866 39.0912 444.775 41.0149 438.331 41.0149H421.473V64.845ZM436.79 31.1751C439.977 31.1751 442.604 30.254 444.647 28.4003C446.69 26.5466 447.718 24.0983 447.718 21.0321C447.718 17.9659 446.69 15.5176 444.647 13.6639C442.604 11.8102 439.989 10.8891 436.79 10.8891H421.473V31.1634H436.79V31.1751Z" fill="#636364"/>
<path  d="M518.876 64.845H505.94L491.767 41.0265H480.664V64.845H469.456V1.04932H497.522C503.78 1.04932 508.824 2.90303 512.653 6.5988C516.482 10.2946 518.397 15.1096 518.397 21.0438C518.397 26.395 516.926 30.6854 513.996 33.9032C511.054 37.1209 507.481 39.0796 503.266 39.7791L518.876 64.845ZM495.981 31.1751C499.169 31.1751 501.795 30.254 503.838 28.4003C505.882 26.5466 506.909 24.0983 506.909 21.0321C506.909 17.9659 505.882 15.5176 503.838 13.6639C501.795 11.8102 499.18 10.8891 495.981 10.8891H480.664V31.1634H495.981V31.1751Z" fill="#636364"/>
<path  d="M583.8 56.6724C577.67 62.8864 569.848 65.9992 560.333 65.9992C550.818 65.9992 542.996 62.8981 536.867 56.6724C530.737 50.4584 527.667 42.5655 527.667 33.0055C527.667 23.4454 530.737 15.5526 536.867 9.33858C542.996 3.12456 550.818 0.0117188 560.333 0.0117188C569.848 0.0117188 577.67 3.12456 583.8 9.33858C589.929 15.5526 592.999 23.4454 592.999 33.0055C592.999 42.5655 589.929 50.4467 583.8 56.6724ZM560.345 56.0428C566.661 56.0428 571.775 53.8627 575.662 49.4907C579.562 45.1187 581.5 39.6275 581.5 32.9938C581.5 26.3018 579.55 20.7873 575.662 16.4503C571.763 12.1133 566.661 9.94482 560.345 9.94482C553.959 9.94482 548.833 12.1133 544.969 16.4503C541.105 20.7873 539.178 26.3018 539.178 32.9938C539.178 39.6858 541.105 45.2003 544.969 49.5373C548.833 53.8743 553.959 56.0428 560.345 56.0428Z" fill="#636364"/>
</g>
</g>
<!-- <g opacity="0.7">
<g opacity="0.7"> -->
<path  d="M591.867 72.668H410.148V83.8019H591.867V72.668Z" fill="#636364"/>
</g>
</g>
</svg>
